<svg xmlns="http://www.w3.org/2000/svg" viewBox="0 0 240 240" shape-rendering="crispEdges">
  <!-- Pokeball -->
  <g transform="translate(20 30)">
    <rect x="4" y="0" width="8" height="1" fill="#1a1206"/>
    <rect x="2" y="1" width="12" height="2" fill="#1a1206"/>
    <rect x="4" y="1" width="8" height="1" fill="#e63946"/>
    <rect x="2" y="3" width="12" height="3" fill="#e63946"/>
    <rect x="1" y="3" width="1" height="3" fill="#1a1206"/>
    <rect x="14" y="3" width="1" height="3" fill="#1a1206"/>
    <rect x="2" y="6" width="12" height="1" fill="#1a1206"/>
    <rect x="2" y="7" width="12" height="3" fill="#ffffff"/>
    <rect x="1" y="7" width="1" height="3" fill="#1a1206"/>
    <rect x="14" y="7" width="1" height="3" fill="#1a1206"/>
    <rect x="2" y="10" width="12" height="2" fill="#1a1206"/>
    <rect x="4" y="12" width="8" height="1" fill="#1a1206"/>
    <rect x="6" y="6" width="4" height="2" fill="#1a1206"/>
    <rect x="7" y="7" width="2" height="1" fill="#ffffff"/>
  </g>
  <!-- Lightning bolts -->
  <g transform="translate(170 60) scale(1.4)" fill="#ffd836" stroke="#1a1206" stroke-width="0.3">
    <rect x="4" y="0" width="2" height="1"/>
    <rect x="3" y="1" width="2" height="1"/>
    <rect x="2" y="2" width="3" height="1"/>
    <rect x="1" y="3" width="3" height="1"/>
    <rect x="3" y="3" width="3" height="1"/>
    <rect x="2" y="4" width="3" height="1"/>
    <rect x="1" y="5" width="2" height="1"/>
    <rect x="0" y="6" width="2" height="1"/>
  </g>
  <g transform="translate(40 160) scale(1.6)" fill="#ffd836" stroke="#1a1206" stroke-width="0.3">
    <rect x="4" y="0" width="2" height="1"/>
    <rect x="3" y="1" width="2" height="1"/>
    <rect x="2" y="2" width="3" height="1"/>
    <rect x="1" y="3" width="3" height="1"/>
    <rect x="3" y="3" width="3" height="1"/>
    <rect x="2" y="4" width="3" height="1"/>
    <rect x="1" y="5" width="2" height="1"/>
    <rect x="0" y="6" width="2" height="1"/>
  </g>
  <!-- Pikachu face -->
  <g transform="translate(130 170)">
    <rect x="3" y="1" width="4" height="1" fill="#ffd836"/>
    <rect x="2" y="2" width="6" height="4" fill="#ffd836"/>
    <rect x="3" y="6" width="4" height="1" fill="#ffd836"/>
    <rect x="3" y="3" width="1" height="1" fill="#1a1206"/>
    <rect x="6" y="3" width="1" height="1" fill="#1a1206"/>
    <rect x="4" y="5" width="2" height="1" fill="#e63946"/>
    <rect x="1" y="2" width="1" height="1" fill="#ffd836"/>
    <rect x="8" y="2" width="1" height="1" fill="#ffd836"/>
  </g>
  <g transform="translate(195 200)" fill="#ffd836">
    <rect x="4" y="0" width="2" height="1"/>
    <rect x="3" y="1" width="2" height="1"/>
    <rect x="2" y="2" width="3" height="1"/>
    <rect x="1" y="3" width="3" height="1"/>
  </g>
</svg>
